<svg width="259" height="295" viewBox="0 0 259 295" fill="none" xmlns="http://www.w3.org/2000/svg">
<path d="M182.979 85.4703C182.979 85.4703 181.466 83.1539 179.634 83.8728C177.801 84.5917 176.049 84.0753 173.977 83.7344C171.906 83.3935 169.118 83.8728 167.923 85.4703C166.728 87.0679 166.17 89.544 164.258 90.0233C162.346 90.5025 161.948 93.2982 161.948 94.6561C161.948 96.014 160.992 97.1323 160.912 96.3335C160.832 95.5348 160.753 91.4611 159.319 91.8604C157.885 92.2598 157.566 94.8957 157.566 94.8957C157.566 94.8957 153.742 81.4765 160.036 76.2047C160.036 76.2047 152.069 67.8176 162.983 64.383C173.898 60.9483 174.101 71.4121 169.697 72.5304C169.697 72.5304 182.9 73.409 182.979 85.4703Z" fill="black"/>
<path d="M182.925 85.4777C183.037 87.974 183.198 90.4637 183.295 92.9388C183.319 93.5567 183.332 94.1749 183.325 94.7844C183.324 95.089 183.316 95.3916 183.296 95.6852C183.289 95.9346 183.244 96.1815 183.163 96.4172C182.889 96.9687 182.601 97.5199 182.35 98.1316C182.219 98.4446 182.117 98.7695 182.048 99.1019C181.983 99.4339 181.949 99.7714 181.947 100.11C181.963 100.691 181.881 101.271 181.704 101.825C181.502 102.39 181.245 102.934 180.937 103.448C180.631 103.982 180.285 104.475 179.943 105.022C179.607 105.56 179.31 106.121 179.055 106.702C178.792 107.278 178.591 107.877 178.384 108.464C178.202 109.05 177.966 109.616 177.678 110.157C177.53 110.41 177.347 110.641 177.136 110.845C177.03 110.944 176.907 111.034 176.792 111.128L176.421 111.386C175.909 111.709 175.37 111.987 174.809 112.216C173.696 112.653 172.509 112.87 171.314 112.854C170.141 112.824 168.992 112.518 167.959 111.961C166.916 111.408 166.074 110.622 165.103 109.764C164.141 108.931 163.113 108.176 162.031 107.507C161.502 107.177 160.9 106.883 160.669 106.575C160.407 106.117 160.244 105.61 160.19 105.085C160.105 104.501 160.078 103.91 160.109 103.321C160.126 102.714 160.198 102.111 160.208 101.439C160.211 101.255 160.197 101.071 160.166 100.889C160.148 100.756 160.103 100.629 160.033 100.514C159.964 100.4 159.871 100.301 159.762 100.223C159.638 100.147 159.496 100.103 159.351 100.096C159.295 100.087 159.239 100.091 159.187 100.077C159.08 100.058 158.979 100.016 158.89 99.9539C158.507 99.7009 158.261 99.1194 158.104 98.5552C157.824 97.3546 157.662 96.1293 157.621 94.8969L157.511 94.8949C157.456 95.5185 157.415 96.1449 157.419 96.7756C157.406 97.4137 157.453 98.0517 157.56 98.6809C157.617 99.0091 157.708 99.3306 157.831 99.64C157.963 99.986 158.179 100.293 158.459 100.534C158.617 100.664 158.799 100.76 158.995 100.817C159.091 100.844 159.19 100.865 159.289 100.879C159.314 100.889 159.33 100.893 159.317 100.894C159.295 100.883 159.326 100.916 159.338 101.029C159.35 101.157 159.35 101.285 159.34 101.412C159.297 101.986 159.182 102.619 159.127 103.257C159.063 103.912 159.064 104.571 159.13 105.226C159.167 105.56 159.226 105.891 159.307 106.217C159.389 106.593 159.547 106.949 159.77 107.263C160.005 107.559 160.291 107.81 160.615 108.005L161.412 108.511C162.442 109.16 163.429 109.875 164.367 110.65C165.281 111.409 166.305 112.313 167.49 112.889C168.675 113.486 169.99 113.776 171.316 113.732C172.616 113.678 173.889 113.35 175.054 112.77C175.628 112.487 176.177 112.155 176.693 111.776L177.068 111.474C177.188 111.364 177.309 111.259 177.424 111.14C177.653 110.902 177.848 110.633 178.004 110.342C178.282 109.772 178.515 109.181 178.701 108.575C178.893 107.988 179.12 107.412 179.38 106.852C179.647 106.301 179.961 105.773 180.318 105.276C180.68 104.796 181.095 104.3 181.454 103.781C181.833 103.255 182.159 102.693 182.425 102.102C182.684 101.485 182.833 100.827 182.864 100.159C182.894 99.5888 183.027 99.0289 183.258 98.5069C183.486 97.9673 183.782 97.4157 184.043 96.8421C184.088 96.7422 184.124 96.6386 184.151 96.5325C184.173 96.4411 184.191 96.3486 184.203 96.2554C184.23 96.0779 184.24 95.9128 184.251 95.7462C184.267 95.4174 184.268 95.0965 184.263 94.7777C184.247 94.1404 184.2 93.5128 184.149 92.8864C183.92 90.3926 183.547 87.9142 183.034 85.4634L182.925 85.4777Z" fill="black"/>
<path d="M175.969 95.5351C175.539 95.009 174.991 94.5931 174.369 94.3219C173.757 94.0401 173.105 93.8541 172.436 93.7705C171.77 93.6892 171.097 93.7065 170.436 93.8219C170.107 93.8785 169.784 93.9617 169.469 94.0706C169.154 94.1857 168.85 94.3282 168.56 94.4967C168.899 94.5658 169.219 94.5742 169.539 94.6093C169.858 94.6521 170.169 94.6501 170.479 94.6907C171.097 94.7296 171.699 94.8073 172.301 94.868C172.901 94.944 173.497 95.0357 174.101 95.146C174.707 95.2568 175.313 95.3804 175.969 95.5351ZM183.713 96.2637C183.055 95.8349 182.297 95.5849 181.514 95.538C181.104 95.525 180.696 95.6002 180.317 95.7586C179.941 95.9103 179.588 96.1148 179.27 96.3659C178.6 96.875 178.126 97.6014 177.931 98.4213C177.839 98.8369 177.827 99.2662 177.894 99.6865C177.955 100.079 178.033 100.453 178.109 100.829C178.273 101.575 178.451 102.316 178.536 103.035C178.559 103.207 178.569 103.381 178.567 103.555C178.57 103.692 178.544 103.829 178.491 103.956C178.441 104.036 178.458 104.027 178.235 104.078C178.063 104.113 177.889 104.135 177.714 104.143C177.359 104.165 176.989 104.126 176.596 104.116C176.397 104.11 176.196 104.116 175.997 104.135L175.433 104.197C175.252 104.217 175.07 104.223 174.888 104.216C174.722 104.219 174.559 104.173 174.42 104.084C174.367 104.023 174.332 103.949 174.321 103.87C174.309 103.79 174.32 103.709 174.353 103.636C174.382 103.548 174.415 103.46 174.452 103.375L174.588 103.123L174.405 103.347C174.349 103.427 174.297 103.51 174.25 103.597C174.192 103.692 174.163 103.803 174.167 103.915C174.171 104.026 174.208 104.135 174.273 104.226C174.43 104.378 174.633 104.474 174.851 104.5C175.047 104.534 175.245 104.554 175.444 104.559C175.639 104.565 175.836 104.558 176.02 104.558C176.201 104.56 176.382 104.573 176.561 104.598C176.945 104.659 177.332 104.699 177.721 104.719C177.926 104.724 178.132 104.714 178.336 104.688C178.459 104.675 178.579 104.646 178.694 104.602C178.839 104.536 178.961 104.427 179.043 104.29C179.162 104.076 179.228 103.836 179.236 103.591C179.249 103.383 179.247 103.175 179.229 102.968C179.138 102.197 179.004 101.431 178.828 100.675C178.747 100.305 178.664 99.9325 178.603 99.5719C178.546 99.2375 178.549 98.8957 178.611 98.5623C178.752 97.8797 179.112 97.2624 179.637 96.8052C179.903 96.5653 180.198 96.3607 180.515 96.1965C180.826 96.0261 181.17 95.9243 181.523 95.8981C182.271 95.8591 183.018 95.9839 183.713 96.2637Z" fill="black"/>
<path d="M173.22 98.9163C172.693 98.9163 172.265 98.4872 172.265 97.9579C172.265 97.4286 172.693 96.9995 173.22 96.9995C173.748 96.9995 174.176 97.4286 174.176 97.9579C174.176 98.4872 173.748 98.9163 173.22 98.9163Z" fill="black"/>
<path d="M180.55 99.8748C180.022 99.8748 179.594 99.4457 179.594 98.9164C179.594 98.3871 180.022 97.958 180.55 97.958C181.077 97.958 181.505 98.3871 181.505 98.9164C181.505 99.4457 181.077 99.8748 180.55 99.8748Z" fill="black"/>
<path d="M177.456 107.224C176.524 107.132 175.669 107.121 174.818 107.05C174.394 107.011 173.977 106.959 173.556 106.891C173.134 106.817 172.725 106.706 172.265 106.585C172.561 106.959 172.946 107.254 173.383 107.444C173.82 107.629 174.284 107.744 174.756 107.785C175.222 107.82 175.691 107.794 176.15 107.706C176.61 107.624 177.053 107.461 177.456 107.224ZM159.186 95.2954C158.953 95.5439 158.77 95.8343 158.645 96.1513C158.516 96.4638 158.436 96.7945 158.408 97.1316C158.369 97.4971 158.428 97.8666 158.578 98.2018C158.668 98.391 158.816 98.5458 159.002 98.6425C159.088 98.6838 159.183 98.7058 159.279 98.7071C159.375 98.7084 159.47 98.689 159.558 98.6502C159.433 98.5965 159.325 98.508 159.249 98.3952C159.172 98.2824 159.129 98.15 159.125 98.0136C159.108 97.7386 159.113 97.4625 159.141 97.1883C159.216 96.5602 159.231 95.9264 159.186 95.2954ZM170.63 113.247C170.026 114.087 169.223 114.764 168.293 115.217C167.364 115.669 166.338 115.884 165.305 115.842C164.797 115.82 164.291 115.752 163.795 115.638C163.295 115.53 162.804 115.386 162.326 115.206C161.846 115.03 161.386 114.789 160.917 114.584C160.473 114.35 160.051 114.077 159.655 113.769L159.366 113.534C159.274 113.45 159.188 113.361 159.099 113.275C158.924 113.102 158.759 112.918 158.604 112.725C158.304 112.336 158.051 111.911 157.851 111.461C157.454 110.544 157.244 109.557 157.231 108.558C157.235 106.51 157.656 104.485 158.469 102.606L158.72 102L158.108 101.937C156.426 101.795 154.735 101.809 153.055 101.98C151.391 102.134 149.738 102.396 148.107 102.763C144.854 103.492 141.691 104.581 138.678 106.011C137.178 106.739 135.716 107.544 134.297 108.421C133.605 108.886 132.893 109.327 132.226 109.831C131.891 110.079 131.542 110.313 131.216 110.574L130.233 111.354C129.899 111.608 129.593 111.894 129.275 112.166C128.963 112.444 128.635 112.707 128.336 113C127.74 113.589 127.116 114.151 126.555 114.774L125.693 115.69L124.871 116.643C124.312 117.272 123.816 117.941 123.304 118.6L121.774 120.583C121.282 121.257 120.81 121.945 120.327 122.626C119.342 123.976 118.458 125.394 117.565 126.805C115.812 129.648 114.221 132.589 112.801 135.613C111.37 138.628 110.102 141.718 109.004 144.87C107.886 148.011 106.996 151.229 106.34 154.499L106.448 154.522C106.894 152.924 107.4 151.343 107.947 149.779C108.229 149 108.498 148.217 108.787 147.441C109.088 146.669 109.373 145.892 109.685 145.125L110.633 142.831L111.621 140.555C111.956 139.799 112.32 139.056 112.667 138.307C113.009 137.554 113.386 136.819 113.762 136.083C116.705 130.166 120.172 124.526 124.121 119.231C126.054 116.566 128.261 114.112 130.705 111.91C131.934 110.813 133.228 109.792 134.58 108.853C135.943 107.923 137.365 107.082 138.836 106.336C141.796 104.865 144.95 103.825 148.203 103.245C149.824 102.964 151.461 102.786 153.104 102.712C154.731 102.637 156.361 102.69 157.98 102.872L157.619 102.203C157.163 103.199 156.815 104.243 156.582 105.314C156.333 106.388 156.226 107.49 156.262 108.591C156.29 109.717 156.544 110.825 157.009 111.85C157.253 112.362 157.557 112.844 157.916 113.283C158.098 113.499 158.292 113.704 158.498 113.898C158.601 113.993 158.703 114.091 158.809 114.183L159.141 114.44C159.364 114.608 159.596 114.764 159.835 114.907C160.074 115.049 160.325 115.166 160.569 115.296C161.075 115.496 161.567 115.727 162.084 115.895C163.123 116.246 164.211 116.423 165.307 116.419C166.408 116.393 167.485 116.096 168.444 115.553C169.385 115.012 170.171 114.237 170.726 113.302L170.63 113.247ZM189.247 135.766C188.773 133.392 188.196 131.053 187.582 128.725C187.285 127.558 186.95 126.402 186.633 125.242C186.308 124.082 185.953 122.938 185.633 121.771C184.988 119.422 184.128 117.137 183.065 114.946C182.524 113.835 181.836 112.803 181.02 111.876C180.6 111.412 180.109 111.018 179.565 110.71C179.02 110.409 178.395 110.285 177.777 110.355C178.367 110.401 178.931 110.614 179.404 110.97C179.864 111.326 180.268 111.748 180.604 112.224C181.278 113.188 181.842 114.224 182.286 115.314C182.742 116.406 183.162 117.518 183.524 118.654C183.902 119.784 184.247 120.927 184.574 122.08C185.258 124.384 185.987 126.687 186.76 128.969C187.53 131.254 188.336 133.527 189.247 135.766ZM177.777 123.625C176.693 124.507 175.757 125.557 175.004 126.736C174.623 127.343 174.316 127.993 174.089 128.673L173.946 129.203C173.91 129.384 173.889 129.569 173.861 129.752C173.814 130.114 173.796 130.445 173.762 130.792C173.633 132.162 173.529 133.526 173.313 134.864C173.157 136.179 172.813 137.465 172.291 138.681C172.069 139.222 171.693 139.686 171.211 140.015C170.625 140.328 170.023 140.61 169.407 140.861C168.154 141.411 166.867 141.934 165.628 142.573C164.365 143.184 163.176 143.938 162.083 144.819C161.538 145.271 161.055 145.794 160.647 146.374C160.243 146.954 159.996 147.629 159.93 148.333C160.106 147.675 160.435 147.067 160.89 146.56C161.341 146.062 161.853 145.622 162.412 145.25C163.544 144.507 164.743 143.872 165.993 143.355C167.246 142.823 168.516 142.327 169.806 141.829C170.471 141.577 171.121 141.283 171.75 140.951C172.427 140.522 172.961 139.899 173.283 139.164C173.844 137.84 174.202 136.439 174.345 135.008C174.508 133.614 174.591 132.224 174.619 130.841C174.631 130.5 174.629 130.141 174.652 129.817C174.667 129.659 174.674 129.499 174.695 129.34L174.783 128.862C174.941 128.217 175.173 127.592 175.474 127.001C176.097 125.782 176.87 124.648 177.777 123.625Z" fill="black"/>
<path d="M141.076 108.93C142.79 108.969 144.435 109.61 145.725 110.74C147.004 111.865 148.088 113.194 148.936 114.673C150.697 117.606 151.861 120.866 152.891 124.137C154.936 130.712 156.081 137.525 157.389 144.315C157.553 145.166 157.728 146.015 157.933 146.868C158.032 147.311 158.16 147.747 158.318 148.173C158.341 148.235 158.369 148.296 158.401 148.354C158.418 148.387 158.431 148.415 158.452 148.45C158.48 148.492 158.51 148.533 158.542 148.572C158.565 148.603 158.593 148.632 158.624 148.656L158.696 148.717L158.84 148.838C159.046 148.999 159.278 149.122 159.526 149.203C160.014 149.345 160.533 149.338 161.016 149.183C161.453 149.052 161.875 148.877 162.276 148.662C163.063 148.257 163.794 147.806 164.546 147.394C165.28 146.972 166.053 146.62 166.854 146.344C167.656 146.055 168.481 145.818 169.307 145.586C170.965 145.136 172.647 144.763 174.334 144.42L175.602 144.179C176.022 144.102 176.457 144.018 176.859 143.979C177.267 143.949 177.676 144.011 178.058 144.159C178.44 144.307 178.784 144.538 179.065 144.835C179.649 145.444 180.109 146.16 180.42 146.944C180.749 147.732 181.015 148.545 181.214 149.376C181.613 151.048 181.874 152.75 181.995 154.465C182.131 156.178 182.186 157.907 182.152 159.617L182.404 159.329C180.659 159.588 178.936 159.982 177.251 160.507C176.4 160.775 175.569 161.105 174.765 161.492L174.166 161.816C173.971 161.934 173.78 162.065 173.587 162.19C173.395 162.316 173.22 162.481 173.037 162.626L172.554 163.032C171.274 164.057 169.605 164.506 167.928 164.697C167.084 164.794 166.227 164.833 165.357 164.869C164.915 164.892 164.494 164.895 164.02 164.946C163.558 164.994 163.101 165.082 162.654 165.211C161.788 165.464 160.945 165.789 160.134 166.184C159.329 166.561 158.55 166.966 157.775 167.366C156.999 167.76 156.229 168.18 155.468 168.484C154.698 168.794 153.895 169.018 153.076 169.152C152.274 169.288 151.455 169.301 150.649 169.189C149.87 169.078 149.125 168.792 148.471 168.351C147.825 167.9 147.284 167.313 146.886 166.632C146.453 165.896 146.033 165.124 145.614 164.363C143.931 161.312 142.322 158.209 140.685 155.123L138.231 150.487C137.845 149.724 137.504 148.939 137.209 148.136C136.895 147.326 136.592 146.508 136.29 145.689C135.089 142.409 133.876 139.123 132.566 135.874C131.91 134.25 131.215 132.639 130.434 131.066C130.048 130.276 129.62 129.506 129.152 128.762C128.917 128.387 128.65 128.032 128.356 127.701C128.207 127.533 128.04 127.382 127.858 127.251C127.672 127.108 127.444 127.031 127.21 127.031L127.216 127.142C127.421 127.155 127.617 127.235 127.772 127.369C127.938 127.502 128.088 127.653 128.221 127.82C128.488 128.158 128.73 128.516 128.944 128.89C129.374 129.645 129.764 130.423 130.111 131.219C130.818 132.811 131.434 134.443 132.044 136.077C133.256 139.35 134.33 142.674 135.476 145.981C135.762 146.808 136.051 147.635 136.353 148.461C136.645 149.305 136.986 150.132 137.375 150.936L139.738 155.615C141.314 158.737 142.928 161.842 144.58 164.931C144.999 165.704 145.419 166.465 145.871 167.235C146.359 168.066 147.021 168.78 147.812 169.328C148.612 169.866 149.523 170.216 150.477 170.352C151.402 170.475 152.341 170.453 153.26 170.287C154.162 170.13 155.044 169.874 155.889 169.523C156.745 169.167 157.504 168.739 158.279 168.335C159.822 167.528 161.342 166.676 162.934 166.209C163.324 166.091 163.725 166.009 164.13 165.962C164.522 165.914 164.974 165.902 165.403 165.877C166.275 165.833 167.162 165.779 168.049 165.658C168.947 165.545 169.831 165.341 170.688 165.047C171.563 164.745 172.379 164.292 173.1 163.708L173.611 163.262C173.769 163.135 173.908 162.992 174.079 162.877C174.251 162.762 174.417 162.641 174.593 162.53L175.139 162.218C175.896 161.827 176.681 161.49 177.486 161.21C179.119 160.65 180.793 160.217 182.492 159.916L182.746 159.871L182.744 159.628C182.735 157.881 182.637 156.151 182.457 154.422C182.288 152.69 181.997 150.972 181.586 149.282C181.374 148.433 181.095 147.602 180.75 146.798C180.414 145.976 179.921 145.226 179.299 144.592L179.051 144.364C178.965 144.292 178.866 144.234 178.774 144.168C178.588 144.037 178.387 143.928 178.176 143.844C178.072 143.796 177.963 143.761 177.851 143.739C177.74 143.712 177.63 143.678 177.518 143.657C177.293 143.632 177.065 143.625 176.838 143.636C176.38 143.677 175.968 143.757 175.54 143.831L174.266 144.066C172.567 144.379 170.875 144.73 169.192 145.136C168.351 145.344 167.511 145.558 166.68 145.828C166.472 145.89 166.265 145.962 166.059 146.039C165.853 146.115 165.645 146.182 165.441 146.277C165.026 146.448 164.64 146.644 164.253 146.842C163.479 147.236 162.725 147.667 161.966 148.029C161.22 148.383 160.403 148.694 159.773 148.462C159.613 148.404 159.464 148.318 159.333 148.208L159.233 148.117L159.182 148.073C159.163 148.057 159.147 148.042 159.153 148.041C159.153 148.039 159.152 148.037 159.151 148.035C159.15 148.034 159.149 148.032 159.147 148.032L159.125 147.983C159.106 147.946 159.091 147.908 159.078 147.869C158.949 147.479 158.846 147.081 158.768 146.677C158.593 145.845 158.45 144.993 158.296 144.146C157.139 137.339 155.825 130.502 153.696 123.88C153.164 122.222 152.551 120.593 151.857 118.997C151.169 117.392 150.356 115.843 149.426 114.366C148.507 112.866 147.333 111.539 145.957 110.446C145.26 109.908 144.483 109.482 143.654 109.185C142.826 108.897 141.95 108.772 141.074 108.819L141.076 108.93Z" fill="black"/>
<path d="M176.394 143.86C176.258 143.301 176.076 142.754 175.849 142.225C175.63 141.699 175.388 141.187 175.123 140.686C174.859 140.185 174.567 139.699 174.255 139.224C173.944 138.74 173.592 138.283 173.204 137.859C173.338 138.419 173.52 138.966 173.748 139.495C173.967 140.02 174.207 140.534 174.474 141.033C174.74 141.533 175.029 142.02 175.344 142.495C175.655 142.979 176.006 143.435 176.394 143.86ZM178.369 144.119C179.201 143.137 180.015 142.146 180.831 141.16C181.647 140.174 182.462 139.191 183.301 138.238C183.725 137.767 184.142 137.291 184.584 136.852C184.803 136.63 185.028 136.42 185.256 136.226C185.454 136.044 185.674 135.888 185.911 135.762C186.157 135.715 186.407 135.701 186.656 135.722C186.967 135.724 187.276 135.734 187.576 135.76C188.13 135.758 188.672 135.923 189.131 136.235L189.329 136.407L189.532 136.317C189.98 136.124 190.461 136.019 190.948 136.008C191.438 135.992 191.919 136.134 192.323 136.411C192.723 136.714 193.035 137.119 193.226 137.584C193.327 137.818 193.391 138.072 193.473 138.316C193.522 138.572 193.56 138.831 193.605 139.088L193.61 139.115L193.614 139.124C193.754 139.444 193.949 139.737 194.191 139.99C194.417 140.238 194.666 140.464 194.935 140.665C195.165 140.851 195.352 141.085 195.483 141.35C195.614 141.616 195.687 141.906 195.696 142.202C195.751 142.802 195.631 143.455 195.715 144.169C195.757 144.529 195.851 144.881 195.996 145.212L196.194 145.656C196.251 145.792 196.302 145.931 196.345 146.072C196.429 146.34 196.473 146.619 196.478 146.901C196.48 147.037 196.47 147.173 196.448 147.307C196.439 147.374 196.422 147.44 196.408 147.507C196.385 147.606 196.368 147.707 196.357 147.809C196.328 148.051 196.36 148.297 196.451 148.523C196.533 148.706 196.635 148.878 196.755 149.038C196.919 149.266 197.045 149.518 197.13 149.785C197.256 150.127 197.384 150.407 197.473 150.684C197.561 150.918 197.602 151.168 197.595 151.418C197.589 151.513 197.565 151.606 197.522 151.691C197.48 151.776 197.421 151.851 197.349 151.913C197.161 152.074 196.946 152.201 196.713 152.285C196.583 152.341 196.448 152.387 196.311 152.423L195.87 152.542C195.537 152.626 195.212 152.715 194.899 152.815C194.266 153.013 193.659 153.234 193.049 153.434C191.852 153.853 190.624 154.176 189.377 154.403C188.143 154.625 186.881 154.634 185.644 154.429C184.389 154.2 183.19 153.729 182.114 153.042L182.047 153.13C183.042 154.018 184.223 154.672 185.502 155.043C186.803 155.397 188.16 155.501 189.5 155.35C190.82 155.199 192.123 154.921 193.39 154.518L195.246 153.948C195.55 153.849 195.85 153.766 196.146 153.69C196.491 153.608 196.83 153.502 197.16 153.373C197.536 153.229 197.878 153.01 198.166 152.728C198.498 152.4 198.694 151.96 198.716 151.493C198.742 150.598 198.33 149.953 198.119 149.411C197.989 149.063 197.809 148.736 197.584 148.441C197.504 148.345 197.434 148.241 197.374 148.132C197.34 148.056 197.327 147.973 197.335 147.89C197.338 147.83 197.345 147.77 197.356 147.711C197.371 147.618 197.389 147.525 197.397 147.43C197.418 147.242 197.423 147.052 197.411 146.863C197.386 146.493 197.304 146.13 197.168 145.785C197.104 145.62 197.031 145.457 196.951 145.299C196.871 145.141 196.779 144.992 196.714 144.87C196.574 144.616 196.473 144.342 196.414 144.059C196.357 143.756 196.324 143.449 196.315 143.141C196.307 142.804 196.277 142.467 196.226 142.133C196.172 141.782 196.058 141.443 195.889 141.13C195.71 140.821 195.467 140.553 195.176 140.345C194.916 140.169 194.673 139.968 194.451 139.746C194.238 139.532 194.063 139.284 193.935 139.011L193.943 139.047L193.798 138.239C193.718 137.975 193.654 137.705 193.55 137.448C193.344 136.916 193.01 136.443 192.579 136.07C192.12 135.704 191.561 135.485 190.975 135.444C190.394 135.394 189.808 135.46 189.253 135.64L189.654 135.723C189.389 135.444 189.06 135.234 188.697 135.11C188.368 134.993 188.028 134.909 187.682 134.858C187.347 134.809 187.015 134.783 186.686 134.764C186.522 134.755 186.358 134.746 186.195 134.744L186.073 134.743L186.011 134.742L185.906 134.753C185.834 134.761 185.764 134.773 185.694 134.791L185.533 134.852C185.197 135.013 184.886 135.221 184.609 135.471C184.355 135.699 184.117 135.932 183.891 136.172C183.438 136.652 183.008 137.14 182.606 137.649C181.793 138.66 181.037 139.705 180.316 140.773C179.596 141.841 178.909 142.931 178.278 144.057L178.369 144.119Z" fill="black"/>
<path d="M186.286 138.069L189.598 136.285L189.188 135.673L186.286 138.069Z" fill="black"/>
<path d="M182.828 198.186L188.055 163.007C188.133 162.481 188.396 162.001 188.798 161.653C189.2 161.306 189.713 161.115 190.243 161.115H233.468C233.786 161.115 234.101 161.183 234.39 161.316C234.68 161.448 234.937 161.642 235.145 161.884C235.353 162.125 235.507 162.409 235.596 162.715C235.685 163.022 235.706 163.344 235.66 163.66L230.434 198.842C230.355 199.368 230.09 199.849 229.688 200.196C229.285 200.543 228.772 200.734 228.242 200.734H185.017C184.698 200.733 184.384 200.664 184.095 200.531C183.806 200.398 183.549 200.204 183.341 199.962C183.133 199.72 182.98 199.436 182.892 199.13C182.803 198.823 182.782 198.501 182.828 198.186ZM207.694 184.225H214.899C214.987 184.225 215.073 184.194 215.14 184.136C215.208 184.079 215.252 183.999 215.266 183.911L216.134 178.045C216.143 177.992 216.139 177.938 216.125 177.887C216.11 177.836 216.085 177.788 216.05 177.748C216.015 177.708 215.972 177.675 215.924 177.653C215.876 177.631 215.823 177.62 215.77 177.62H208.565C208.477 177.62 208.391 177.652 208.324 177.709C208.257 177.767 208.212 177.846 208.198 177.934L207.326 183.801C207.318 183.854 207.322 183.907 207.337 183.959C207.352 184.01 207.378 184.057 207.413 184.098C207.447 184.138 207.491 184.17 207.539 184.192C207.588 184.214 207.641 184.225 207.694 184.225Z" fill="black"/>
<path d="M183.925 190.7C182.449 190.719 180.987 190.842 179.528 190.98C178.072 191.139 176.616 191.302 175.171 191.537C173.725 191.766 172.304 192.16 170.87 192.466C169.437 192.781 167.991 193.004 166.536 193.177C166.489 193.183 166.446 193.205 166.414 193.24C166.382 193.274 166.363 193.319 166.361 193.367L166.36 193.383C166.319 194.369 166.251 195.354 166.192 196.339C166.188 196.416 166.209 196.493 166.253 196.557C166.297 196.621 166.361 196.668 166.435 196.692L166.481 196.706C167.925 197.155 169.386 197.535 170.844 197.926C172.304 198.313 173.764 198.693 175.239 199.014C176.712 199.346 178.193 199.64 179.679 199.917C181.165 200.189 182.659 200.429 184.166 200.617C184.18 200.619 184.193 200.616 184.205 200.608C184.216 200.6 184.224 200.588 184.227 200.575C184.23 200.562 184.228 200.548 184.222 200.536C184.215 200.524 184.205 200.514 184.192 200.51C182.763 199.993 181.323 199.53 179.874 199.098C178.425 198.67 176.971 198.261 175.508 197.889C174.048 197.505 172.574 197.181 171.098 196.864C169.621 196.551 168.147 196.227 166.656 195.972L166.945 196.339C166.886 195.354 166.818 194.369 166.777 193.383L166.601 193.59C168.037 193.304 169.482 193.07 170.941 192.927C172.4 192.786 173.864 192.684 175.317 192.507C176.768 192.32 178.209 192.061 179.649 191.797C181.086 191.513 182.521 191.213 183.941 190.81C183.954 190.806 183.965 190.798 183.973 190.786C183.98 190.775 183.983 190.761 183.981 190.748C183.979 190.735 183.972 190.722 183.962 190.714C183.952 190.705 183.939 190.7 183.925 190.7Z" fill="black"/>
<path d="M182.963 197.283C181.632 196.81 180.284 196.407 178.93 196.029C177.578 195.647 176.215 195.307 174.85 194.975C173.483 194.656 172.113 194.346 170.733 194.079C169.354 193.806 167.97 193.559 166.568 193.384C167.899 193.858 169.247 194.261 170.601 194.638C171.953 195.02 173.316 195.361 174.681 195.692C176.049 196.01 177.418 196.319 178.798 196.587C180.177 196.859 181.562 197.107 182.963 197.283ZM194.202 153.659C194.143 154.343 194.132 155.031 194.17 155.716C194.2 156.397 194.256 157.074 194.341 157.748C194.423 158.422 194.536 159.093 194.672 159.76C194.804 160.434 194.983 161.098 195.209 161.746C195.269 161.062 195.28 160.374 195.242 159.689C195.211 159.008 195.156 158.331 195.07 157.657C194.987 156.983 194.875 156.313 194.737 155.645C194.606 154.971 194.427 154.308 194.202 153.659ZM177.777 160.725C178.066 163.273 178.462 165.8 178.896 168.319C179.102 169.58 179.348 170.834 179.575 172.091L180.315 175.851L181.113 179.599C181.399 180.844 181.665 182.093 181.972 183.334C182.564 185.821 183.195 188.299 183.933 190.755C183.645 188.206 183.249 185.679 182.815 183.161C182.609 181.899 182.362 180.646 182.136 179.388L181.395 175.629L180.595 171.881C180.31 170.636 180.042 169.387 179.736 168.146C179.143 165.66 178.513 163.181 177.777 160.725Z" fill="black"/>
<path d="M173.22 163.031C174.019 163.271 174.787 163.601 175.511 164.016C176.213 164.415 176.849 164.921 177.395 165.517C177.538 165.657 177.669 165.809 177.787 165.971C177.918 166.123 178.037 166.286 178.143 166.456L178.474 166.964L178.752 167.508L178.894 167.781C178.937 167.874 178.966 167.972 179.008 168.067L179.242 168.645C179.389 169.036 179.488 169.445 179.648 169.851C179.657 169.419 179.638 168.987 179.592 168.558C179.529 168.125 179.425 167.699 179.281 167.286C179 166.44 178.539 165.665 177.932 165.013C177.771 164.859 177.623 164.691 177.451 164.549C177.276 164.411 177.105 164.268 176.927 164.135L176.36 163.789C176.167 163.682 175.963 163.595 175.764 163.502C174.963 163.153 174.093 162.991 173.22 163.031ZM180.536 191.174C180.464 188.229 180.069 185.301 179.357 182.443C178.675 179.551 177.616 176.762 176.206 174.149C175.469 172.843 174.605 171.615 173.624 170.482C172.636 169.338 171.471 168.362 170.173 167.59C168.878 166.821 167.454 166.295 165.971 166.037C164.505 165.834 163.016 165.867 161.56 166.134C163.006 166.096 164.452 166.242 165.861 166.569C167.232 166.939 168.533 167.53 169.714 168.32C169.998 168.531 170.304 168.708 170.568 168.944L171.379 169.625L172.133 170.372C172.38 170.624 172.6 170.904 172.835 171.169C173.748 172.263 174.555 173.442 175.244 174.69C175.943 175.945 176.559 177.245 177.089 178.581C177.641 179.914 178.101 181.286 178.53 182.671C179.367 185.462 180.037 188.302 180.536 191.174ZM114.565 155.395C115.512 155.499 116.441 155.725 117.33 156.069C118.214 156.415 119.052 156.871 119.824 157.424C120.591 157.98 121.284 158.632 121.884 159.366C122.487 160.101 122.99 160.913 123.38 161.781L123.373 161.767C123.715 162.518 123.97 163.307 124.132 164.117C124.296 164.919 124.337 165.762 124.434 166.6L124.963 171.623L126.026 181.669C126.721 188.367 127.477 195.059 128.209 201.753L129.315 211.793L129.868 216.814L130.447 221.831L131.605 231.865L132.196 236.881L132.498 239.389C132.615 240.203 132.676 241.025 132.682 241.848C132.656 243.48 132.254 245.083 131.506 246.532C130.756 247.986 129.688 249.252 128.381 250.234C127.071 251.221 125.552 251.891 123.942 252.194C123.137 252.347 122.317 252.405 121.499 252.366C121.093 252.369 120.668 252.32 120.251 252.292L118.996 252.194L98.9121 250.558L78.8388 248.801L58.7727 246.958L38.7056 245.126C37.0978 244.982 35.5432 244.476 34.1575 243.645C33.4703 243.229 32.8301 242.739 32.248 242.185L31.8322 241.749L31.6247 241.531L31.4364 241.296L31.0605 240.825L30.724 240.326C30.6087 240.162 30.5045 239.99 30.4118 239.812C30.3159 239.635 30.2121 239.463 30.122 239.284C29.9466 238.923 29.7907 238.553 29.655 238.176C29.3815 237.42 29.1914 236.637 29.0883 235.84L28.4678 230.828L25.9863 210.779L23.4326 190.739L20.866 170.711C20.6882 169.109 20.8785 167.488 21.4224 165.971C21.9612 164.445 22.8439 163.064 24.0019 161.936C25.1599 160.809 26.5619 159.964 28.0987 159.468L28.6737 159.282L29.2655 159.16C29.4634 159.123 29.6587 159.069 29.8587 159.045L30.4609 158.986C30.8551 158.937 31.2783 158.923 31.6983 158.906L32.9565 158.85L53.0849 157.913L73.2107 156.909L73.2065 156.798L53.0635 157.365L32.9232 158L31.6645 158.043C31.2455 158.057 30.8291 158.066 30.3886 158.113L29.7368 158.172C29.5202 158.196 29.3079 158.251 29.0931 158.289L28.4506 158.417L27.8247 158.611C25.2962 159.417 23.1212 161.07 21.6652 163.294C20.2092 165.517 19.5609 168.175 19.8293 170.822C20.6097 177.531 21.4803 184.194 22.3097 190.881L24.8264 210.926L27.4153 230.961L28.0625 235.97C28.2918 237.723 28.9138 239.402 29.8819 240.879C30.8513 242.351 32.143 243.582 33.6586 244.478C35.1741 245.373 36.8735 245.91 38.6274 246.048L58.7145 247.643L78.8026 249.226L98.8834 250.896L118.954 252.686L120.208 252.803C120.628 252.838 121.038 252.893 121.472 252.898C122.332 252.952 123.194 252.905 124.042 252.757C125.749 252.463 127.365 251.778 128.766 250.757C130.171 249.733 131.327 248.404 132.147 246.869C132.971 245.328 133.427 243.616 133.481 241.868C133.488 241.008 133.437 240.148 133.329 239.294L133.064 236.783L132.52 231.762L131.41 221.722L130.854 216.702L130.273 211.685L129.109 201.651C128.329 194.962 127.572 188.271 126.755 181.586L125.548 171.557L124.943 166.543L124.787 165.29C124.74 164.864 124.67 164.441 124.577 164.022C124.39 163.184 124.107 162.37 123.733 161.596L123.726 161.582C123.307 160.705 122.774 159.888 122.14 159.151C121.507 158.411 120.781 157.756 119.98 157.203C118.376 156.099 116.511 155.438 114.572 155.285L114.565 155.395Z" fill="black"/>
<path d="M111.039 140.838C109.855 137.91 108.178 135.207 106.082 132.848C104.001 130.428 101.417 128.492 98.5122 127.176C95.5787 125.946 92.3901 125.453 89.2233 125.74C87.6623 125.868 86.1121 126.107 84.5844 126.453C83.0506 126.779 81.5371 127.193 80.0514 127.695C75.5255 129.198 71.4396 131.798 68.1568 135.264C67.0699 136.43 66.0948 137.696 65.2443 139.045C64.3993 140.397 63.681 141.825 63.0989 143.31C62.5268 144.794 62.0969 146.33 61.8151 147.896C61.5319 149.453 61.3916 151.033 61.3958 152.615C61.4048 154.188 61.5449 155.756 61.8145 157.305L61.9241 157.292C61.7141 154.199 61.9639 151.093 62.6654 148.075C63.0174 146.584 63.4937 145.125 64.0894 143.714C64.6901 142.311 65.4084 140.961 66.2366 139.68C67.8832 137.1 69.9453 134.813 72.339 132.91C74.754 131.002 77.4209 129.438 80.2637 128.262C81.6953 127.675 83.1674 127.193 84.6685 126.819C86.1675 126.433 87.6999 126.191 89.2448 126.098C89.6302 126.088 90.0156 126.057 90.4005 126.077L91.5541 126.129L92.6975 126.276C93.0777 126.327 93.4512 126.421 93.8271 126.491C95.3174 126.824 96.7625 127.335 98.1312 128.014C99.4996 128.681 100.803 129.476 102.024 130.386C103.247 131.307 104.394 132.325 105.454 133.43C106.519 134.545 107.51 135.727 108.421 136.971C108.873 137.598 109.324 138.228 109.745 138.88C110.164 139.533 110.565 140.2 110.937 140.882L111.039 140.838Z" fill="black"/>
<path d="M128.022 113.954C128.176 113.218 128.219 112.463 128.148 111.715C128.091 110.948 127.892 110.198 127.563 109.503C127.216 108.79 126.7 108.174 126.061 107.707C125.744 107.471 125.402 107.269 125.043 107.103C124.866 107.017 124.683 106.963 124.503 106.894C124.324 106.824 124.142 106.763 123.957 106.712C122.509 106.317 121.026 106.063 119.53 105.954C118.049 105.831 116.563 105.798 115.078 105.854C113.596 105.915 112.118 106.053 110.65 106.268C110.283 106.314 109.917 106.383 109.552 106.448C109.186 106.506 108.822 106.587 108.46 106.669C107.728 106.821 107.009 107.026 106.308 107.285C104.941 107.788 103.505 108.078 102.05 108.145C100.595 108.226 99.1351 108.167 97.6908 107.97C96.9715 107.868 96.2569 107.741 95.5557 107.575C95.2072 107.486 94.8603 107.394 94.5225 107.285C94.171 107.177 93.7817 107.072 93.4162 106.998C91.9422 106.707 90.4431 106.561 88.9407 106.564C87.4239 106.541 85.9098 106.7 84.4307 107.038C83.661 107.214 82.921 107.502 82.2339 107.892C81.481 108.297 80.8657 108.918 80.4667 109.676C80.2738 110.07 80.1537 110.496 80.1123 110.932C80.0096 112.103 80.1227 113.282 80.4457 114.411C80.8528 115.879 81.3813 117.227 81.7004 118.634C82.3927 121.437 82.3073 124.398 81.9754 127.323L82.0839 127.342C82.2354 126.62 82.4216 125.9 82.5224 125.165L82.6894 124.062C82.7274 123.691 82.751 123.319 82.7816 122.947C82.883 121.447 82.8057 119.939 82.5513 118.457C82.4252 117.713 82.2397 116.984 82.0497 116.263C81.8529 115.55 81.6407 114.844 81.4832 114.151C81.3185 113.474 81.2276 112.781 81.2122 112.084C81.2073 111.741 81.223 111.398 81.2594 111.057C81.293 110.759 81.3809 110.47 81.5185 110.205C81.8195 109.655 82.2738 109.206 82.8256 108.911C83.4223 108.578 84.0592 108.324 84.7206 108.153C86.1039 107.803 87.5239 107.618 88.9506 107.604C90.3905 107.569 91.8309 107.655 93.2565 107.861C93.6147 107.918 93.9396 107.99 94.2958 108.081C94.6646 108.176 95.035 108.246 95.4047 108.314C96.1454 108.438 96.8876 108.518 97.6299 108.573C99.1119 108.674 100.6 108.656 102.079 108.52C103.563 108.405 105.027 108.103 106.435 107.62C107.826 107.194 109.265 106.946 110.717 106.88C112.172 106.772 113.633 106.748 115.091 106.775C117.995 106.82 120.945 106.892 123.729 107.538C124.073 107.623 124.403 107.739 124.732 107.849C125.049 107.973 125.352 108.129 125.636 108.315C126.212 108.69 126.695 109.192 127.046 109.782C127.731 111.053 128.033 112.496 127.914 113.935L128.022 113.954ZM88.549 151.102C88.6794 149.924 88.7203 148.738 88.6714 147.555C88.6368 146.376 88.5421 145.199 88.3877 144.03C88.2352 142.856 88.0081 141.693 87.708 140.547C87.624 140.261 87.548 139.974 87.4575 139.69C87.3655 139.407 87.2577 139.125 87.1565 138.845C86.9436 138.283 86.6625 137.75 86.3195 137.257C86.5914 138.415 86.7075 139.559 86.8632 140.713C86.9945 141.869 87.1383 143.023 87.2944 144.176C87.4474 145.332 87.6133 146.487 87.818 147.641C88.0155 148.796 88.2367 149.95 88.549 151.102ZM84.8312 151.848C84.3146 150.939 83.6755 150.105 82.932 149.371C82.2014 148.628 81.4017 147.956 80.5438 147.365C79.6899 146.767 78.7796 146.255 77.8258 145.836C76.8752 145.406 75.874 145.1 74.8464 144.925C75.7051 145.53 76.577 146.037 77.4152 146.602C78.2644 147.143 79.0922 147.706 79.916 148.275C81.5697 149.411 83.1564 150.615 84.8312 151.848ZM101.402 145.458C100.36 145.581 99.3333 145.814 98.3398 146.152C97.3441 146.482 96.3773 146.894 95.4495 147.383C94.5054 147.871 93.6244 148.474 92.826 149.176C92.4235 149.536 92.0605 149.938 91.7431 150.375C91.4219 150.812 91.2016 151.315 91.0983 151.848C91.7185 151.049 92.4847 150.376 93.356 149.865C94.1922 149.32 95.0754 148.837 95.9663 148.36L98.6744 146.952C99.583 146.476 100.497 146.002 101.402 145.458Z" fill="black"/>
<path d="M99.5474 108.375C99.0891 106.47 98.492 104.602 97.7609 102.784C97.0547 100.936 96.107 99.189 94.9427 97.5902C94.3387 96.7689 93.5959 96.0599 92.748 95.4955C92.5267 95.3542 92.2951 95.23 92.0551 95.1238C91.8198 95.0206 91.5903 94.9333 91.3578 94.8447C90.8954 94.6707 90.4301 94.5146 89.9643 94.3606C88.0989 93.762 86.2204 93.2211 84.3287 92.7378C80.5438 91.7732 76.7213 90.9519 72.8587 90.362C68.9964 89.7647 65.102 89.3991 61.1963 89.2669C57.2894 89.1053 53.3761 89.3385 49.5158 89.9629C47.5776 90.274 45.6835 90.8161 43.8736 91.5775C43.428 91.786 42.9886 92.0096 42.5458 92.2254L41.2632 92.9266C40.4049 93.3869 39.552 93.8589 38.6999 94.3333C37.8434 94.7987 37.0057 95.3027 36.1577 95.7868C35.3258 96.3022 34.4794 96.793 33.6702 97.3531C31.9895 98.4168 30.4776 99.7273 29.1848 101.241C27.9388 102.818 27.003 104.619 26.4272 106.547C25.8598 108.434 25.3966 110.352 25.0397 112.291L25.5082 111.861C24.9138 111.939 24.33 112.084 23.7674 112.292C23.2134 112.487 22.6779 112.732 22.1674 113.023C20.618 113.891 19.3359 115.17 18.4609 116.718C18.3049 116.967 18.164 117.225 18.0389 117.49L17.6965 118.298C17.6421 118.434 17.578 118.566 17.5319 118.704L17.4104 119.123L17.1693 119.961C17.093 120.241 17.0356 120.524 16.9974 120.811L16.8529 121.666C16.5644 123.963 16.7379 126.23 16.9469 128.464C17.0798 129.578 17.2108 130.692 17.372 131.799C17.55 132.903 17.7079 134.012 17.9186 135.108C18.3125 137.307 18.7453 139.497 19.217 141.677C19.6767 143.859 20.1765 146.032 20.7164 148.195C21.7713 152.526 22.9162 156.833 24.185 161.104L24.2915 161.075C23.2847 156.738 22.3226 152.392 21.4053 148.038C20.519 143.679 19.6278 139.322 18.9487 134.935C18.7597 133.841 18.6385 132.74 18.471 131.644C18.3225 130.547 18.2045 129.448 18.0843 128.35C18.0141 127.253 17.8816 126.151 17.891 125.061C17.8521 123.979 17.8956 122.896 18.0211 121.82C18.246 119.704 19.0483 117.69 20.3397 116C21.0107 115.196 21.8134 114.513 22.7135 113.98C23.1653 113.715 23.64 113.491 24.1318 113.311C24.6097 113.127 25.1058 112.995 25.6115 112.917L26.0109 112.858L26.0802 112.487C26.4083 110.584 26.8372 108.7 27.3652 106.843C27.8674 105.011 28.7128 103.292 29.8562 101.777C31.0673 100.297 32.4835 98.9972 34.0615 97.9187C34.8368 97.3446 35.6589 96.8286 36.4672 96.2944C37.2965 95.7896 38.1136 95.2658 38.955 94.7774C39.7907 94.2807 40.628 93.7859 41.4725 93.3018L42.7405 92.5797C43.1706 92.3652 43.597 92.1424 44.0304 91.9338C45.8053 91.1633 47.667 90.6119 49.5745 90.2917C51.4857 89.9676 53.4172 89.7775 55.3548 89.7228C57.2933 89.6598 59.2338 89.7351 61.1685 89.852C65.0371 90.1331 68.8884 90.6168 72.7066 91.301C74.6169 91.6323 76.5242 91.9842 78.4225 92.3821C80.3232 92.7671 82.2157 93.1907 84.1 93.653C85.983 94.1154 87.8611 94.6042 89.7123 95.1638C90.173 95.3081 90.6335 95.4519 91.0884 95.6036C91.313 95.6808 91.5417 95.7597 91.7547 95.8451C91.9627 95.9293 92.164 96.0292 92.3569 96.144C93.1488 96.6382 93.8488 97.267 94.4255 98.0021C95.5985 99.53 96.5831 101.194 97.3579 102.959C98.1649 104.728 98.8605 106.547 99.4406 108.403L99.5474 108.375Z" fill="black"/>
<path d="M36.2311 158.299C34.8387 154.583 33.5211 150.849 32.2786 147.096C31.6697 145.215 31.0574 143.337 30.4979 141.442C29.9246 139.553 29.3788 137.655 28.8852 135.745C28.3685 133.84 27.903 131.924 27.4887 129.995C27.2654 129.035 27.0818 128.067 26.8865 127.1C26.7177 126.13 26.5292 125.162 26.3806 124.188C25.7192 120.292 25.4442 116.339 25.5597 112.389C25.008 116.341 24.9972 120.35 25.5277 124.306C26.0122 128.263 26.778 132.181 27.8194 136.028C28.8446 139.875 30.0712 143.663 31.4699 147.383C32.8504 151.109 34.44 154.753 36.2311 158.299ZM230.798 196.425C231.312 196.476 231.816 196.604 232.292 196.807C232.768 197 233.21 197.269 233.602 197.602C234.385 198.265 234.944 199.154 235.202 200.149C235.274 200.394 235.331 200.643 235.372 200.895C235.405 201.15 235.444 201.402 235.472 201.657C235.509 202.172 235.523 202.697 235.535 203.22C235.555 204.267 235.572 205.317 235.576 206.366C235.6 210.565 235.513 214.766 235.444 218.966C235.369 223.165 235.245 227.363 235.071 231.559C234.879 235.751 234.687 239.946 234.309 244.115C234.209 245.156 234.108 246.197 233.968 247.228C233.847 248.251 233.651 249.263 233.382 250.256C233.316 250.486 233.23 250.71 233.125 250.925C233.099 250.971 233.074 251.025 233.047 251.066L232.967 251.175L232.711 251.406C232.527 251.557 232.312 251.702 232.109 251.847L231.458 252.256C230.563 252.772 229.643 253.259 228.697 253.697C224.899 255.45 220.955 256.866 216.91 257.928C208.81 260.08 200.449 261.084 192.071 260.912C187.895 260.822 183.731 260.453 179.604 259.807C175.482 259.166 171.413 258.226 167.427 256.992L166.678 256.771L165.937 256.521L164.458 256.015C163.966 255.844 163.47 255.684 162.982 255.504L161.527 254.934C160.558 254.549 159.579 254.193 158.634 253.751L157.206 253.117L156.492 252.8L156.135 252.641C156.068 252.613 156.029 252.592 155.992 252.573C155.954 252.551 155.917 252.527 155.881 252.502C155.737 252.399 155.618 252.265 155.532 252.109C155.446 251.954 155.396 251.782 155.385 251.605L155.347 250.054L155.275 246.905L155.165 240.605C155.088 236.406 155.062 232.205 155.047 228.006C155.038 223.807 155.072 219.608 155.216 215.415C155.296 213.319 155.381 211.224 155.54 209.137C155.62 208.093 155.718 207.052 155.853 206.018C155.968 204.991 156.168 203.975 156.451 202.981C156.524 202.745 156.616 202.516 156.726 202.295C156.777 202.195 156.838 202.101 156.908 202.014C156.976 201.926 157.082 201.833 157.168 201.743C157.528 201.374 157.906 201.025 158.302 200.695C159.113 200.046 159.972 199.46 160.871 198.942C162.685 197.902 164.599 197.048 166.583 196.392L166.553 196.285C164.524 196.856 162.561 197.642 160.698 198.63C159.761 199.126 158.863 199.693 158.012 200.326C157.589 200.653 157.184 201.003 156.801 201.376C156.704 201.474 156.608 201.551 156.51 201.666C156.412 201.78 156.326 201.904 156.254 202.037C156.122 202.282 156.011 202.538 155.922 202.803C155.602 203.822 155.366 204.867 155.219 205.926C155.055 206.973 154.929 208.022 154.821 209.072C154.607 211.172 154.458 213.274 154.354 215.378C153.944 223.792 153.901 232.209 153.988 240.622C154.012 242.725 154.054 244.828 154.099 246.93L154.174 250.084L154.224 251.685C154.249 252.035 154.352 252.374 154.524 252.678C154.696 252.983 154.934 253.245 155.22 253.445C155.292 253.495 155.366 253.541 155.442 253.583C155.521 253.625 155.6 253.663 155.653 253.684L156.017 253.842L156.743 254.157L158.195 254.786C159.156 255.225 160.151 255.578 161.135 255.958L162.614 256.522C163.11 256.7 163.614 256.857 164.114 257.026L165.616 257.525L166.367 257.771L167.128 257.988C168.144 258.271 169.153 258.58 170.174 258.841L173.251 259.575L176.354 260.18C177.39 260.374 178.436 260.508 179.475 260.675C183.647 261.257 187.854 261.538 192.066 261.518C200.48 261.481 208.856 260.392 217.001 258.275C219.034 257.747 221.056 257.172 223.049 256.499C225.045 255.839 227.021 255.109 228.953 254.257C229.921 253.838 230.87 253.368 231.805 252.859L232.496 252.449C232.723 252.295 232.949 252.151 233.174 251.975L233.508 251.685C233.563 251.621 233.616 251.552 233.668 251.483C233.714 251.416 233.747 251.35 233.787 251.283C233.92 251.03 234.031 250.765 234.117 250.492C234.425 249.465 234.656 248.415 234.808 247.353C234.973 246.305 235.111 245.257 235.223 244.207C235.665 240.008 235.894 235.803 236.038 231.596C236.18 227.39 236.264 223.183 236.29 218.977C236.323 214.77 236.265 210.563 236.155 206.356C236.122 205.304 236.093 204.252 236.027 203.2C235.995 202.673 235.961 202.147 235.904 201.615C235.865 201.35 235.814 201.084 235.769 200.819C235.715 200.554 235.646 200.293 235.56 200.037C235.394 199.522 235.16 199.031 234.866 198.577C234.563 198.129 234.191 197.731 233.763 197.4C233.341 197.068 232.867 196.808 232.359 196.632C231.859 196.447 231.333 196.34 230.8 196.314L230.798 196.425Z" fill="black"/>
<path d="M232.372 203.075C226.748 204.075 221.075 204.783 215.378 205.194C212.534 205.417 209.687 205.58 206.837 205.682L202.562 205.811L198.285 205.819C196.859 205.85 195.435 205.787 194.009 205.76C192.584 205.718 191.158 205.718 189.735 205.622L185.463 205.406C184.75 205.381 184.04 205.307 183.33 205.25L181.197 205.079C178.348 204.89 175.518 204.53 172.678 204.221C171.253 204.099 169.844 203.862 168.429 203.665C167.015 203.457 165.598 203.26 164.178 203.075C165.576 203.379 166.976 203.672 168.38 203.954C169.784 204.233 171.183 204.553 172.6 204.758L176.848 205.416L177.91 205.578C178.265 205.628 178.622 205.66 178.978 205.702L181.114 205.938C186.815 206.58 192.546 206.91 198.282 206.925C204.018 206.952 209.752 206.66 215.456 206.051C221.162 205.492 226.817 204.497 232.372 203.075ZM229.347 253.712C229.291 254.586 229.253 255.46 229.215 256.334L229.156 257.645L229.13 258.297C229.12 258.488 229.082 258.676 229.018 258.856C228.892 259.212 228.662 259.521 228.359 259.745C228.284 259.799 228.207 259.849 228.126 259.894L227.841 260.045C227.651 260.148 227.459 260.247 227.266 260.344C226.496 260.738 225.711 261.103 224.924 261.461C221.755 262.857 218.5 264.049 215.179 265.03C214.354 265.294 213.519 265.525 212.685 265.769C211.846 265.984 211.01 266.224 210.163 266.414C208.475 266.829 206.77 267.165 205.048 267.424C204.188 267.558 203.323 267.65 202.459 267.75C201.593 267.831 200.726 267.902 199.858 267.961C198.989 267.998 198.121 268.04 197.252 268.053C196.382 268.051 195.513 268.064 194.644 268.049C191.17 267.968 187.71 267.717 184.265 267.295C180.823 266.871 177.411 266.243 174.024 265.511C170.629 264.805 167.279 263.891 163.949 262.901L162.702 262.522L162.077 262.336L161.769 262.243C161.683 262.215 161.599 262.181 161.517 262.141C161.185 261.975 160.91 261.712 160.729 261.388C160.637 261.224 160.569 261.047 160.528 260.863C160.49 260.666 160.472 260.465 160.474 260.265C160.416 258.517 160.342 256.769 160.25 255.021H160.14C160.048 256.769 159.973 258.517 159.916 260.265C159.9 260.501 159.908 260.738 159.939 260.972C159.998 261.346 160.139 261.702 160.352 262.015C160.566 262.327 160.846 262.587 161.173 262.777C161.283 262.84 161.398 262.895 161.517 262.943L161.828 263.058L162.444 263.284L163.68 263.729C170.288 266.103 177.164 267.648 184.151 268.329C187.638 268.685 191.147 268.794 194.649 268.655C198.148 268.532 201.63 268.22 205.096 267.78C208.577 267.382 212.028 266.759 215.429 265.916C217.129 265.476 218.805 264.943 220.447 264.32C222.095 263.707 223.71 263.012 225.288 262.236C226.079 261.852 226.855 261.437 227.618 260.998C227.809 260.89 228 260.779 228.188 260.665L228.473 260.495C228.846 260.266 229.153 259.943 229.363 259.559C229.574 259.175 229.681 258.742 229.673 258.304L229.648 257.645L229.59 256.334C229.552 255.46 229.514 254.586 229.458 253.712L229.347 253.712ZM160.595 198.889C160.965 197.196 160.971 195.444 160.614 193.748C160.423 192.877 160.076 192.048 159.59 191.3C159.339 190.921 159.043 190.573 158.71 190.262C158.371 189.954 157.997 189.687 157.596 189.466C157.196 189.245 156.775 189.066 156.338 188.933C156.121 188.867 155.899 188.823 155.68 188.769L155.04 188.66C154.186 188.503 153.338 188.415 152.487 188.305C150.787 188.13 149.087 187.999 147.389 187.892C145.689 187.796 143.989 187.717 142.291 187.653C140.592 187.604 138.894 187.541 137.195 187.518L132.101 187.434C131.252 187.43 130.404 187.406 129.556 187.387C129.133 187.369 128.706 187.372 128.285 187.337L127.65 187.3C127.442 187.274 127.234 187.236 127.021 187.204C127.224 187.262 127.429 187.328 127.637 187.382L128.266 187.503C128.686 187.586 129.109 187.628 129.531 187.693C130.377 187.803 131.224 187.892 132.071 187.976C133.766 188.135 135.461 188.266 137.157 188.38C138.852 188.506 140.548 188.589 142.242 188.699C143.937 188.796 145.631 188.882 147.322 188.995C149.015 189.081 150.703 189.208 152.386 189.345C153.223 189.427 154.068 189.489 154.89 189.615L155.509 189.7C155.703 189.743 155.899 189.778 156.091 189.824C156.473 189.919 156.844 190.055 157.198 190.228C158.633 190.897 159.614 192.315 160.094 193.89C160.567 195.511 160.737 197.206 160.595 198.889Z" fill="black"/>
<path d="M155.362 193.046C153.234 193.096 151.121 193.255 149.012 193.451C147.957 193.539 146.906 193.666 145.853 193.775L142.703 194.16L139.56 194.604C138.515 194.773 137.467 194.921 136.425 195.111C134.338 195.468 132.255 195.865 130.187 196.37C132.315 196.321 134.429 196.163 136.537 195.967C137.593 195.879 138.643 195.751 139.696 195.643L142.847 195.256L145.989 194.81C147.034 194.642 148.082 194.492 149.124 194.303C151.211 193.946 153.294 193.55 155.362 193.046ZM154.749 216.278C152.712 216.461 150.698 216.751 148.691 217.078C147.685 217.232 146.687 217.424 145.686 217.599L142.693 218.18L139.713 218.819C138.724 219.053 137.73 219.266 136.745 219.52C134.77 220.006 132.803 220.532 130.859 221.164C132.895 220.983 134.91 220.694 136.917 220.366C137.923 220.213 138.92 220.019 139.922 219.845L142.914 219.263L145.894 218.622C146.884 218.389 147.877 218.174 148.862 217.921C150.837 217.434 152.804 216.909 154.749 216.278ZM154.749 244.079C152.52 244.524 150.324 245.073 148.138 245.66C147.043 245.943 145.958 246.264 144.869 246.567L141.617 247.534L138.383 248.558L136.781 249.086C136.25 249.248 135.717 249.402 135.178 249.542C134.097 249.818 133 250.035 131.895 250.19C130.788 250.365 129.66 250.424 128.528 250.546C129.66 250.682 130.799 250.744 131.939 250.732C133.086 250.706 134.23 250.591 135.36 250.386C136.484 250.173 137.596 249.897 138.689 249.559L141.94 248.591L145.174 247.566C146.246 247.205 147.324 246.862 148.389 246.482C150.527 245.74 152.654 244.962 154.749 244.079ZM126.98 251.491L128.855 257.929C128.953 258.264 128.984 258.616 128.946 258.964C128.908 259.311 128.803 259.648 128.635 259.954C128.467 260.261 128.241 260.532 127.969 260.751C127.698 260.97 127.385 261.133 127.051 261.231C126.375 261.429 125.648 261.349 125.03 261.01C124.413 260.671 123.955 260.099 123.757 259.421L121.809 252.733L122.066 252.658C123.772 252.658 125.455 252.258 126.98 251.491ZM36.9339 245.302C37.4864 245.439 38.0487 245.534 38.6157 245.584L42.2929 245.898L40.44 252.259C40.3422 252.595 40.1795 252.908 39.9611 253.18C39.7427 253.453 39.4729 253.68 39.1671 253.848C38.8613 254.016 38.5254 254.122 38.1787 254.16C37.8321 254.198 37.4814 254.167 37.1467 254.069C36.8119 253.971 36.4997 253.807 36.2279 253.588C35.9561 253.369 35.7299 253.099 35.5623 252.792C35.3948 252.486 35.2891 252.149 35.2513 251.801C35.2135 251.454 35.2444 251.102 35.3421 250.767L36.9339 245.302ZM88.3674 71.8694C88.5712 66.2296 88.6613 60.5899 88.7398 54.9501C88.8009 49.3104 88.8357 43.6706 88.7715 38.0308L88.6981 33.801L88.6933 33.5366L88.7101 33.3268C88.713 33.2558 88.7269 33.1857 88.7514 33.119C88.7662 33.0482 88.788 32.9789 88.8165 32.9123C88.8747 32.7722 88.9478 32.6388 89.0346 32.5145C89.1204 32.381 89.2187 32.2561 89.3281 32.1414C89.7947 31.6586 90.3309 31.2487 90.9189 30.9256C93.3219 29.5736 96.0783 28.8356 98.8079 28.2539C101.561 27.706 104.346 27.3338 107.146 27.1393C109.944 26.9097 112.754 26.8779 115.558 26.909C121.158 26.9761 126.74 27.538 132.242 28.5883C133.606 28.8698 134.959 29.2007 136.281 29.6083C137.593 29.9935 138.861 30.5136 140.067 31.1603C140.636 31.4643 141.157 31.8505 141.614 32.3064C141.717 32.4105 141.811 32.5244 141.892 32.6464C141.973 32.7565 142.041 32.875 142.096 32.9999C142.123 33.0573 142.143 33.1172 142.157 33.1788C142.18 33.2354 142.193 33.2956 142.196 33.3567L142.216 33.5367L142.215 33.801L142.215 38.0309C142.271 49.3104 142.398 60.5899 142.748 71.8694H142.859C143.209 60.5899 143.337 49.3104 143.392 38.0309L143.392 33.801L143.392 33.5367C143.384 33.4256 143.373 33.3054 143.36 33.1904C143.349 33.0758 143.324 32.963 143.286 32.8544C143.259 32.7448 143.222 32.6378 143.176 32.5346C143.089 32.3368 142.982 32.1487 142.856 31.9736C142.74 31.8036 142.61 31.6444 142.466 31.498C141.925 30.9575 141.304 30.5037 140.626 30.1527C139.342 29.4829 137.991 28.9486 136.597 28.5585C135.225 28.1554 133.838 27.8361 132.444 27.5677C129.66 27.0459 126.848 26.692 124.022 26.5081C121.203 26.2989 118.378 26.2625 115.558 26.3033C109.917 26.3659 104.291 26.9007 98.7381 27.9021C97.3526 28.1675 95.9734 28.4767 94.6114 28.8657C93.2321 29.2331 91.8946 29.743 90.6204 30.3873C89.9606 30.719 89.3549 31.1491 88.8239 31.6631C88.6858 31.7988 88.5604 31.9468 88.4492 32.1055C88.3292 32.2663 88.2266 32.4394 88.1432 32.622C88.0996 32.7161 88.0642 32.8138 88.0375 32.9141C88.0006 33.0127 87.9763 33.1156 87.9654 33.2203L87.9313 33.5366L87.9265 33.801L87.8531 38.0308C87.7889 43.6706 87.8238 49.3104 87.8848 54.9501C87.9632 60.5899 88.0534 66.2296 88.2571 71.8694H88.3674Z" fill="black"/>
<path d="M115.558 75.7038C100.511 75.7038 88.3123 73.9515 88.3123 71.7899C88.3123 69.6283 100.511 67.876 115.558 67.876C130.605 67.876 142.804 69.6283 142.804 71.7899C142.804 73.9515 130.605 75.7038 115.558 75.7038Z" fill="black"/>
<path d="M114.639 67.876H116.478V106.306H114.639V67.876Z" fill="black"/>
<path d="M53.709 221.166C59.233 206.483 60.2922 209.182 62.8447 192.175C65.3933 175.172 66.8278 153.125 82.2817 153.445C97.7357 153.766 114.267 155.315 114.267 155.315C114.267 155.315 123.51 155.721 124.591 165.688C124.591 165.688 118.291 158.508 115.102 161.09C111.917 163.671 111.811 164.733 111.704 173.362C111.597 181.987 103.631 185.077 100.869 191.784C98.1072 198.496 95.6651 214.577 96.25 227.358C96.8347 240.138 96.1985 250.467 70.4909 245.301C44.7868 240.138 48.185 235.846 53.709 221.166ZM119.898 160.942C121.082 160.942 121.082 159.098 119.898 159.098C118.714 159.098 118.714 160.942 119.898 160.942ZM110.987 164.46C112.175 164.46 112.171 162.616 110.987 162.616C109.802 162.616 109.806 164.46 110.987 164.46ZM106.393 158.221C107.578 158.221 107.578 156.377 106.393 156.377C105.209 156.377 105.209 158.221 106.393 158.221ZM104.245 167.495C103.061 167.495 103.065 169.338 104.245 169.338C105.433 169.338 105.43 167.495 104.245 167.495ZM103.76 181.728C104.948 181.728 104.944 179.885 103.76 179.885C102.576 179.885 102.579 181.728 103.76 181.728ZM74.2347 166.964C73.0506 166.964 73.0541 168.807 74.2347 168.807C75.4226 168.807 75.419 166.964 74.2347 166.964ZM97.7357 160.824C96.5515 160.824 96.5515 162.668 97.7357 162.668C98.92 162.668 98.92 160.824 97.7357 160.824ZM96.4779 173.69C95.2938 173.69 95.2973 175.533 96.4779 175.533C97.6658 175.533 97.6622 173.69 96.4779 173.69ZM95.7718 186.434C94.5875 186.434 94.5912 188.277 95.7718 188.277C96.9597 188.277 96.9561 186.434 95.7718 186.434ZM94.2712 200.07C93.0871 200.07 93.0871 201.914 94.2712 201.914C95.4556 201.914 95.4556 200.07 94.2712 200.07ZM93.5651 214.658C94.7494 214.658 94.7494 212.814 93.5651 212.814C92.3808 212.814 92.3808 214.658 93.5651 214.658ZM91.7262 227.335C92.9106 227.335 92.9068 225.492 91.7262 225.492C90.5383 225.492 90.5419 227.335 91.7262 227.335ZM91.5571 157.358C92.7414 157.358 92.7414 155.514 91.5571 155.514C90.3727 155.514 90.3727 157.358 91.5571 157.358ZM89.7697 167.495C88.5854 167.495 88.5892 169.338 89.7697 169.338C90.9577 169.338 90.9539 167.495 89.7697 167.495ZM88.7106 179.885C87.5262 179.885 87.5298 181.728 88.7106 181.728C89.8983 181.728 89.8947 179.885 88.7106 179.885ZM88.5486 242.583C89.7329 242.583 89.7329 240.74 88.5486 240.74C87.3645 240.74 87.3644 242.583 88.5486 242.583ZM87.5631 193.875C86.3787 193.875 86.3787 195.719 87.5631 195.719C88.7472 195.719 88.7472 193.875 87.5631 193.875ZM86.5039 208.109C87.688 208.109 87.688 206.265 86.5039 206.265C85.3196 206.265 85.3196 208.109 86.5039 208.109ZM84.8304 218.969C83.6461 218.969 83.6461 220.812 84.8304 220.812C86.0147 220.812 86.0147 218.969 84.8304 218.969ZM83.7712 234.884C84.9554 234.884 84.9554 233.04 83.7712 233.04C82.5869 233.04 82.5869 234.884 83.7712 234.884ZM82.3774 159.098C81.193 159.098 81.193 160.942 82.3774 160.942C83.5617 160.942 83.5617 159.098 82.3774 159.098ZM81.1196 172.982C79.9353 172.982 79.939 174.826 81.1196 174.826C82.3075 174.825 82.3037 172.982 81.1196 172.982ZM79.8397 186.283C78.6518 186.283 78.6554 188.126 79.8397 188.126C81.0239 188.126 81.0203 186.283 79.8397 186.283ZM78.9129 199.362C77.7286 199.362 77.7286 201.206 78.9129 201.206C80.0971 201.206 80.0971 199.362 78.9129 199.362ZM77.6293 214.507C78.8172 214.507 78.8136 212.663 77.6293 212.663C76.4451 212.663 76.4487 214.507 77.6293 214.507ZM75.7904 225.341C74.6063 225.341 74.6063 227.184 75.7904 227.184C76.9747 227.184 76.9747 225.341 75.7904 225.341ZM74.2347 240.99C75.4226 240.99 75.419 239.147 74.2347 239.147C73.0506 239.147 73.0541 240.99 74.2347 240.99ZM73.7051 181.374C74.893 181.374 74.8894 179.531 73.7051 179.531C72.5208 179.531 72.5246 181.374 73.7051 181.374ZM72.028 193.344C70.8439 193.344 70.8439 195.188 72.028 195.188C73.2124 195.188 73.2124 193.344 72.028 193.344ZM71.4985 207.755C72.6828 207.755 72.6828 205.911 71.4985 205.911C70.3141 205.911 70.3141 207.755 71.4985 207.755ZM68.8725 218.969C67.6883 218.969 67.6883 220.812 68.8725 220.812C70.0568 220.812 70.0568 218.969 68.8725 218.969ZM67.5486 233.556C68.7328 233.556 68.7328 231.713 67.5486 231.713C66.3643 231.713 66.3643 233.556 67.5486 233.556ZM65.695 188.277C66.8792 188.277 66.8792 186.434 65.695 186.434C64.5107 186.434 64.5107 188.277 65.695 188.277ZM63.4884 214.658C64.6725 214.658 64.6689 212.814 63.4884 212.814C62.3003 212.814 62.304 214.658 63.4884 214.658ZM63.4884 200.974C64.6725 200.974 64.6689 199.13 63.4884 199.13C62.3003 199.13 62.304 200.974 63.4884 200.974ZM61.6457 227.335C62.83 227.335 62.83 225.492 61.6457 225.492C60.4614 225.492 60.4614 227.335 61.6457 227.335ZM59.8693 238.866C61.0536 238.866 61.0536 237.023 59.8693 237.023C58.6852 237.023 58.6852 238.866 59.8693 238.866ZM54.0438 233.556C55.2281 233.556 55.2281 231.713 54.0438 231.713C52.8594 231.713 52.8594 233.556 54.0438 233.556ZM117.684 114.612C116.501 114.612 116.499 112.769 117.684 112.769C118.867 112.769 118.869 114.612 117.684 114.612ZM109.21 120.276C108.027 120.276 108.025 118.433 109.21 118.433C110.393 118.433 110.395 120.276 109.21 120.276ZM102.502 114.081C101.319 114.081 101.317 112.238 102.502 112.238C103.685 112.238 103.687 114.081 102.502 114.081ZM93.8518 119.568C92.6685 119.568 92.6666 117.725 93.8518 117.725C95.035 117.725 95.037 119.568 93.8518 119.568ZM86.967 113.55C85.7837 113.55 85.7818 111.707 86.967 111.707C88.1502 111.707 88.1522 113.55 86.967 113.55ZM101.443 126.471C100.259 126.471 100.257 124.628 101.443 124.628C102.626 124.628 102.628 126.471 101.443 126.471ZM86.4374 126.117C85.2541 126.117 85.2522 124.274 86.4374 124.274C87.6206 124.274 87.6226 126.117 86.4374 126.117ZM108.504 133.02C107.321 133.02 107.319 131.177 108.504 131.177C109.687 131.177 109.689 133.02 108.504 133.02ZM116.492 126.471C115.309 126.471 115.307 124.628 116.492 124.628C117.675 124.628 117.677 126.471 116.492 126.471Z" fill="black"/>
<path d="M141.381 157.628C139.265 157.165 137.123 156.831 134.966 156.626C133.89 156.509 132.811 156.438 131.731 156.364C131.191 156.323 130.65 156.315 130.109 156.29C129.569 156.267 129.028 156.248 128.486 156.238C127.404 156.224 126.321 156.227 125.238 156.249C124.697 156.259 124.156 156.294 123.615 156.315C123.074 156.337 122.533 156.363 121.994 156.414C119.831 156.562 117.681 156.857 115.558 157.298L122.025 157.277C123.099 157.285 124.173 157.279 125.247 157.297C126.32 157.308 127.393 157.311 128.467 157.344C129.54 157.346 130.614 157.385 131.688 157.408L134.912 157.484C137.063 157.542 139.214 157.603 141.381 157.628Z" fill="black"/>
</svg>
